<svg width="108" height="66" viewBox="0 0 108 66" fill="none" xmlns="http://www.w3.org/2000/svg">
<path d="M10.5221 2.32737V14.5737H1.83474V2.32737H10.5221ZM2.85158 3.18947V13.6895H9.48316V3.18947H2.85158ZM15.7168 0.293682V8.31789H19.1874V9.24631H15.7168V19.6579H14.6779V0.293682H15.7168ZM94.1684 0.293682V19.68H93.1074V0.293682H94.1684ZM84.0221 1.88526C86.8516 1.88526 88.8411 4.49368 88.8632 8.53895C88.8411 12.5621 86.8516 15.1484 84.0221 15.1484C81.1705 15.1484 79.1811 12.5621 79.1811 8.53895C79.1811 4.49368 81.1705 1.88526 84.0221 1.88526ZM84.0221 2.81368C81.7674 2.81368 80.1979 5.20105 80.1979 8.53895C80.1979 11.8547 81.7674 14.2421 84.0221 14.2421C86.2547 14.2421 87.8242 11.8547 87.8242 8.53895C87.8242 5.20105 86.2547 2.81368 84.0221 2.81368ZM8.14889 24.7022V33.2359H10.3446C12.495 33.2359 13.5815 32.8058 13.5815 31.7872C13.5815 30.7686 12.495 30.3612 10.3446 30.3612H8.37524L9.05432 24.7022H11.8385C18.7198 24.7022 20.8249 27.6675 20.8249 31.9004C20.8249 36.1559 18.7198 39.1212 11.8385 39.1212H8.14889V43.7163H0.452716V24.7022H8.14889ZM37.7947 37.1519V43.7163H21.4969V24.7022H29.1931V37.1519H37.7947ZM54.7662 24.7022L60.4252 43.7163H52.5027L51.8689 41H46.7984L46.1646 43.7163H38.2421L43.9011 24.7022H54.7662ZM48.066 35.5674H50.6013L49.3336 30.1575L48.066 35.5674ZM60.8885 43.7163V24.7022H68.811L73.7909 33.8697V24.7022H80.808V43.7163H72.8855L67.9056 34.5488V43.7163H60.8885ZM98.8017 30.4744H89.0683V31.8325H98.5753V36.3597H89.0683V37.7178H98.9149V43.7163H81.7117V24.7022H98.8017V30.4744ZM8.97348 45.053V54.4503H11.3913C13.7593 54.4503 14.9558 53.9767 14.9558 52.855C14.9558 51.7333 13.7593 51.2846 11.3913 51.2846H9.22274L9.97053 45.053H13.0365C20.6141 45.053 22.9322 48.3184 22.9322 52.9796C22.9322 57.6658 20.6141 60.9311 13.0365 60.9311H8.97348V65.9912H0.498526V45.053H8.97348ZM41.6192 58.7625V65.9912H23.6722V45.053H32.1472V58.7625H41.6192ZM60.3081 45.053L66.5396 65.9912H57.8154L57.1175 63H51.534L50.8361 65.9912H42.1118L48.3434 45.053H60.3081ZM52.9299 57.0177H55.7216L54.3257 51.0603L52.9299 57.0177ZM67.0498 65.9912V45.053H75.7741L81.2579 55.1482V45.053H88.985V65.9912H80.2608L74.777 55.896V65.9912H67.0498ZM90.2294 59.5103V45.053H98.7043V60.0088L90.2294 59.5103ZM90.2294 65.9912V60.3578H98.7043V65.9912H90.2294Z" fill="white"/>
<line x1="22.9712" y1="9.3932" x2="74.2154" y2="9.3932" stroke="white" stroke-width="0.88352"/>
</svg>
