<svg width="762" height="384" viewBox="0 0 762 384" fill="none" xmlns="http://www.w3.org/2000/svg">
<path d="M8.97266 3.80078C10.7236 3.80078 12.1846 4.76758 13.0762 6.44336H17.373V2.42578H20.0801V22.0195H17.373V14.6934H13.291C12.4102 16.627 10.8633 17.7441 8.97266 17.7441C6.00781 17.7441 3.88086 15.0586 3.90234 10.7617C3.88086 6.50781 6.00781 3.80078 8.97266 3.80078ZM8.97266 6.27148C7.51172 6.27148 6.50195 7.86133 6.52344 10.7617C6.50195 13.6836 7.51172 15.252 8.97266 15.252C10.4551 15.252 11.4219 13.6836 11.4219 10.7617C11.4219 7.86133 10.4551 6.27148 8.97266 6.27148ZM13.8496 8.65625C13.9678 9.30078 14.043 10.0098 14.043 10.7617C14.043 11.374 13.9893 11.9541 13.9141 12.502H17.373V8.65625H13.8496ZM39.3945 2.42578V14.6934H36.7949V9.49414H35.2266V14.0488H32.6699V2.79102H35.2266V7.25977H36.7949V2.42578H39.3945ZM32.0898 4.44531V6.57227H22.4863V4.44531H25.9453V2.59766H28.6738V4.44531H32.0898ZM27.3203 7.2168C29.8125 7.2168 31.5742 8.5918 31.5957 10.6328C31.5742 12.6523 29.8125 14.0273 27.3203 14.0273C24.8711 14.0273 23.0879 12.6523 23.0879 10.6328C23.0879 8.5918 24.8711 7.2168 27.3203 7.2168ZM27.3203 9.19336C26.2461 9.19336 25.5371 9.73047 25.5371 10.6328C25.5371 11.5352 26.2461 12.0938 27.3203 12.0723C28.3945 12.0938 29.1035 11.5352 29.125 10.6328C29.1035 9.73047 28.3945 9.19336 27.3203 9.19336ZM32.7129 14.8652C36.9453 14.8652 39.4805 16.1543 39.502 18.4316C39.4805 20.6875 36.9453 21.9766 32.7129 21.9766C28.502 21.9766 25.9453 20.6875 25.9453 18.4316C25.9453 16.1543 28.502 14.8652 32.7129 14.8652ZM32.7129 16.9277C30.0703 16.9277 28.6738 17.4004 28.6953 18.4316C28.6738 19.4199 30.0703 19.9141 32.7129 19.9141C35.377 19.9141 36.7305 19.4199 36.7305 18.4316C36.7305 17.4004 35.377 16.9277 32.7129 16.9277ZM47.9453 3.73633C51.0391 3.71484 53.3594 5.73438 53.3594 8.52734C53.3594 11.3418 51.0391 13.3398 47.9453 13.3398C44.8516 13.3398 42.5098 11.3418 42.5098 8.52734C42.5098 5.73438 44.8516 3.71484 47.9453 3.73633ZM47.9453 6.09961C46.3984 6.09961 45.2168 7.00195 45.2383 8.52734C45.2168 10.0742 46.3984 10.9551 47.9453 10.9551C49.4922 10.9551 50.6738 10.0742 50.6953 8.52734C50.6738 7.00195 49.5137 6.09961 47.9453 6.09961ZM58.043 2.42578V22.0195H55.3145V2.42578H58.043ZM41.6934 15.7891C45.1738 15.8105 50.0078 15.7461 54.1973 15.166L54.4121 17.1426C50.0723 17.9805 45.4316 18.0234 42.0156 18.0234L41.6934 15.7891ZM72.8887 6.67969C72.8887 8.69922 74.3066 10.7832 77.4648 11.6211L76.2188 13.7266C74.0166 13.1357 72.4697 11.9004 71.5781 10.3105C70.7295 12.126 69.1826 13.5547 66.8945 14.2422L65.5625 12.0723C68.7422 11.1484 70.1602 8.91406 70.1602 6.67969V6.61523H66.2285V4.44531H70.1602V2.36133H72.9316V4.44531H76.8418V6.61523H72.8887V6.67969ZM82.1484 2.42578V15.7676H79.4199V9.85938H76.2832V7.625H79.4199V2.42578H82.1484ZM77.0137 14.9082C76.9922 16.9922 79.0762 19.2051 83.2871 19.7422L82.2129 21.8906C79.0225 21.4395 76.7451 20.0107 75.5742 18.1094C74.3711 19.9893 72.0938 21.4395 68.9141 21.8906L67.9473 19.7422C72.0078 19.1621 74.1777 16.8633 74.1992 14.9082V14.5859H77.0137V14.9082ZM105.287 2.42578V7.75391H107.93V10.0098H105.287V16.5625H102.537V2.42578H105.287ZM99.3574 3.99414V6.18555H93.2773V11.127C96.8115 11.1055 98.7559 10.998 100.947 10.5254L101.227 12.7168C98.7773 13.2324 96.5215 13.3398 92.1816 13.3398H90.5273V3.99414H99.3574ZM105.996 19.4414V21.6328H92.6113V15.0586H95.3398V19.4414H105.996ZM126.621 14.1348V16.3691H119.037V21.998H116.33V16.3691H108.789V14.1348H126.621ZM124.988 4.68164V6.83008H119.123C119.435 8.54883 121.637 10.4824 125.676 10.9336L124.688 13.082C121.379 12.7061 118.983 11.3525 117.705 9.55859C116.438 11.374 114.021 12.7061 110.68 13.082L109.691 10.9336C113.73 10.4824 115.954 8.55957 116.287 6.83008H110.4V4.68164H116.33V2.44727H119.037V4.68164H124.988ZM131.928 18.4102L130.08 24.5332H127.803L128.877 18.4102H131.928Z" fill="white"/>
<path d="M75.1656 70.4303V94.3262H86.54V105.605H75.1656V132.846H61.2104V70.4303H75.1656ZM51.1741 76.93C51.1741 101.017 36.8366 117.553 10.1688 124.817L4.52934 114.016C23.5983 108.807 33.9691 99.3921 35.9763 88.1133H8.35268V76.93H51.1741ZM77.8419 145.75V156.742H17.4331V126.442H31.3883V145.75H77.8419ZM164.154 70.4303V134.854H150.485V114.399H140.64V103.215H150.485V96.4291H140.64V85.4369H150.485V70.4303H164.154ZM138.729 76.4521V87.4442H132.038V112.678C134.619 112.535 137.152 112.296 139.589 112.009L140.067 122.045C123.913 124.626 104.988 125.104 91.2236 125.104L89.7899 113.921H98.488V87.4442H91.9883V76.4521H138.729ZM166.161 145.75V156.742H105.274V130.17H119.134V145.75H166.161ZM111.774 113.73L118.943 113.443V87.4442H111.774V113.73ZM244.348 70.5259V96.8114H255.723V107.995H244.348V136.001H230.584V70.5259H244.348ZM226.379 79.3196V90.025H174.381V79.3196H193.498V70.4303H207.262V79.3196H226.379ZM200.38 92.5101C213.188 92.5101 222.173 99.4877 222.173 109.715C222.173 119.847 213.188 126.633 200.38 126.633C187.572 126.633 178.396 119.847 178.491 109.715C178.396 99.4877 187.572 92.5101 200.38 92.5101ZM200.38 103.024C195.314 103.024 191.873 105.318 191.873 109.715C191.873 114.112 195.314 116.215 200.38 116.31C205.542 116.215 209.078 114.112 209.078 109.715C209.078 105.318 205.542 103.024 200.38 103.024ZM247.216 145.75V156.742H186.807V130.935H200.571V145.75H247.216ZM357.233 70.4303V158.176H344.042V70.4303H357.233ZM339.167 71.5773V154.257H326.168V127.685H317.088C313.79 136.048 308.055 140.78 300.743 140.78C289.177 140.78 281.626 128.545 281.626 108.473C281.626 88.4956 289.177 76.3565 300.743 76.3565C308.055 76.3565 313.79 81.0401 317.088 89.3559H326.168V71.5773H339.167ZM300.743 89.3559C296.346 89.3559 293.956 95.282 294.052 108.473C293.956 121.759 296.346 127.589 300.743 127.589C305.14 127.589 307.816 121.759 307.816 108.473C307.816 95.282 305.14 89.3559 300.743 89.3559ZM319.764 100.252C320.098 102.833 320.242 105.557 320.242 108.473C320.242 111.292 320.098 113.969 319.859 116.502H326.168V100.252H319.764ZM446.316 81.4224V92.5101H435.42V100.348H446.316V111.722H435.42V122.045H421.656V70.4303H435.42V81.4224H446.316ZM435.42 125.391V158.176H421.656V136.479H375.871V125.391H435.42ZM390.209 75.1139C403.877 75.1139 414.392 84.1944 414.392 96.7158C414.392 109.428 403.877 118.413 390.209 118.413C376.349 118.413 365.74 109.428 365.835 96.7158C365.74 84.1944 376.349 75.1139 390.209 75.1139ZM390.209 86.8707C383.9 86.8707 379.217 90.3117 379.312 96.7158C379.217 103.311 383.9 106.752 390.209 106.752C396.231 106.752 400.914 103.311 401.01 96.7158C400.914 90.3117 396.231 86.8707 390.209 86.8707ZM490.094 74.5404C508.733 74.5404 523.452 84.7679 523.452 100.061C523.452 115.641 508.733 125.773 490.094 125.773C471.551 125.773 456.926 115.641 456.926 100.061C456.926 84.7679 471.551 74.5404 490.094 74.5404ZM490.094 85.7237C478.528 85.6281 470.308 91.0764 470.308 100.061C470.308 109.333 478.528 114.494 490.094 114.494C501.564 114.494 509.784 109.333 509.784 100.061C509.784 91.0764 501.564 85.6281 490.094 85.7237ZM530.334 136.765V147.853H450.14V136.765H530.334ZM614.926 137.53V148.713H534.731V137.53H567.899V125.295H543.716V95.0909H592.368V86.8707H543.621V75.8786H605.941V105.796H557.48V114.208H607.948V125.295H581.472V137.53H614.926ZM75.1656 182.526V208.811H86.54V219.995H75.1656V248.001H61.4015V182.526H75.1656ZM57.1959 191.32V202.025H5.19842V191.32H24.3151V182.43H38.0792V191.32H57.1959ZM31.1971 204.51C44.0053 204.51 52.9902 211.488 52.9902 221.715C52.9902 231.847 44.0053 238.633 31.1971 238.633C18.389 238.633 9.21293 231.847 9.30851 221.715C9.21293 211.488 18.389 204.51 31.1971 204.51ZM31.1971 215.024C26.1312 215.024 22.6902 217.318 22.6902 221.715C22.6902 226.112 26.1312 228.215 31.1971 228.31C36.3587 228.215 39.8952 226.112 39.8952 221.715C39.8952 217.318 36.3587 215.024 31.1971 215.024ZM78.0331 257.75V268.742H17.6243V242.935H31.3883V257.75H78.0331ZM183.079 205.275V216.076H121.81V184.533H135.67V205.275H183.079ZM191.969 223.053V233.854H159.757V248.383H146.089V233.854H111.774V223.053H191.969ZM183.653 257.75V268.742H120.95V242.074H134.619V257.75H183.653ZM272.641 182.43V270.176H259.451V182.43H272.641ZM254.194 183.577V266.257H241.194V225.252H235.555C234.36 242.457 226.952 252.78 216.151 252.78C204.586 252.78 197.035 240.545 197.035 220.473C197.035 200.496 204.586 188.357 216.151 188.357C226.665 188.357 233.978 198.058 235.459 214.355H241.194V183.577H254.194ZM216.151 201.356C211.946 201.356 209.556 207.282 209.652 220.473C209.556 233.759 211.946 239.589 216.151 239.589C220.548 239.589 223.033 233.759 223.033 220.473C223.033 207.282 220.548 201.356 216.151 201.356ZM373.482 182.526V207.186H384.092V218.37H373.482V242.457H359.718V182.526H373.482ZM301.699 230.413C307.912 230.413 314.937 230.365 322.249 230.222V225.73C312.977 224.248 307.147 219.66 307.147 213.017C307.147 204.892 315.845 199.922 328.94 199.922C342.035 199.922 350.733 204.892 350.733 213.017C350.733 219.612 345.046 224.153 335.917 225.634V229.744C342.8 229.41 349.634 228.884 356.086 228.119L357.041 237.486C338.689 240.641 318.521 240.927 303.132 240.927L301.699 230.413ZM373.482 245.611V270.176H359.718V256.125H312.977V245.611H373.482ZM353.983 188.452V198.393H303.993V188.452H322.249V181.761H335.917V188.452H353.983ZM328.94 209.003C323.3 209.003 320.337 210.054 320.337 213.017C320.337 215.789 323.3 217.318 328.94 217.223C334.484 217.318 337.542 215.789 337.542 213.017C337.542 210.054 334.484 209.003 328.94 209.003ZM461.132 182.526V245.229H447.368V182.526H461.132ZM463.33 257.75V268.742H401.679V238.92H415.634V257.75H463.33ZM412.862 187.974C426.435 187.974 437.14 197.341 437.14 210.245C437.14 223.436 426.435 232.707 412.862 232.707C399.289 232.707 388.488 223.436 388.584 210.245C388.488 197.341 399.289 187.974 412.862 187.974ZM412.862 199.922C406.649 199.827 401.966 203.65 401.966 210.245C401.966 217.127 406.649 220.759 412.862 220.759C418.788 220.759 423.472 217.127 423.472 210.245C423.472 203.65 418.788 199.827 412.862 199.922ZM541.613 182.43V216.171H554.039V227.546H541.613V270.176H528.04V182.43H541.613ZM522.879 195.239V206.135H471.551V195.239H490.572V183.864H504.336V195.239H522.879ZM497.454 210.341C510.262 210.341 520.011 219.134 520.107 231.465C520.011 243.891 510.262 252.589 497.454 252.589C484.263 252.589 474.609 243.891 474.705 231.465C474.609 219.134 484.263 210.341 497.454 210.341ZM497.454 221.428C491.814 221.524 487.8 225.156 487.895 231.465C487.8 237.964 491.814 241.405 497.454 241.405C502.902 241.405 506.821 237.964 506.916 231.465C506.821 225.156 502.902 221.524 497.454 221.428ZM585.391 203.554C585.391 217.892 588.354 232.421 600.588 240.354L593.133 250.964C585.964 246.615 581.424 239.685 578.795 231.369C575.689 240.641 570.718 248.383 563.12 252.971L554.804 242.744C567.994 234.428 572.009 219.039 572.009 204.223V189.695H585.391V203.554ZM632.896 182.43V270.176H619.705V182.43H632.896ZM614.448 183.577V266.257H601.64V222.575H591.412V211.392H601.64V183.577H614.448ZM721.406 249.052V260.235H641.211V249.052H658.512V228.215C651.965 224.057 647.998 217.844 647.998 210.15C647.998 195.812 662.049 186.349 681.165 186.349C700.282 186.349 714.524 195.812 714.524 210.15C714.524 217.701 710.653 223.818 704.297 227.928V249.052H721.406ZM681.165 197.15C669.217 197.055 661.571 201.738 661.666 210.15C661.571 218.465 669.217 223.34 681.165 223.34C693.018 223.34 700.855 218.465 700.855 210.15C700.855 201.738 693.018 197.055 681.165 197.15ZM672.085 249.052H690.341V233.185C687.426 233.711 684.367 233.95 681.165 233.95C677.963 233.95 674.952 233.711 672.085 233.185V249.052Z" fill="white"/>
<g filter="url(#filter0_d_8_1935)">
<path d="M30.7918 327.426V329.943H4.07898V327.426H15.8823V324.254H7.57748V313.17H10.6509V316.341H24.2199V313.17H27.326V324.254H18.9558V327.426H30.7918ZM27.5222 332.559V341.779H24.3834V335.044H7.05434V332.559H27.5222ZM10.6509 321.769H24.2199V318.663H10.6509V321.769ZM43.2164 317.453C43.1837 321.082 45.8321 324.483 50.3115 325.856L48.8402 328.243C45.4561 327.197 42.9712 325.006 41.6797 322.227C40.3882 325.3 37.8215 327.703 34.2903 328.864L32.7209 326.412C37.2657 324.941 40.0776 321.377 40.0776 317.486V316.865H33.6691V314.314H49.5268V316.865H43.2164V317.453ZM56.0333 312.483V319.088H60.2839V321.638H56.0333V328.537H52.9272V312.483H56.0333ZM40.3391 329.878V333.18H52.9272V329.878H56.0333V341.42H37.2657V329.878H40.3391ZM40.3391 338.902H52.9272V335.6H40.3391V338.902ZM84.9695 312.516V321.933H89.2201V324.516H84.9695V334.423H81.8634V312.516H84.9695ZM79.4439 315.916V318.434H61.9841V315.916H69.1773V312.483H72.2834V315.916H79.4439ZM70.714 319.84C74.9318 319.84 77.8091 322.031 77.8091 325.366C77.8091 328.701 74.9318 330.859 70.714 330.859C66.4635 330.859 63.5862 328.701 63.5862 325.366C63.5862 322.031 66.4635 319.84 70.714 319.84ZM70.714 322.227C68.2291 322.227 66.5615 323.437 66.5942 325.366C66.5615 327.262 68.2291 328.439 70.714 328.439C73.1989 328.439 74.8664 327.262 74.8991 325.366C74.8664 323.437 73.1989 322.227 70.714 322.227ZM86.212 338.64V341.158H66.3981V332.69H69.5042V338.64H86.212ZM124.27 312.483V341.779H121.295V312.483H124.27ZM118.385 313.039V340.341H115.442V330.891H111.192C110.146 333.801 108.2 335.485 105.699 335.469C101.874 335.501 99.3886 331.48 99.3886 325.137C99.3886 318.794 101.874 314.805 105.699 314.837C108.2 314.821 110.129 316.489 111.192 319.382H115.442V313.039H118.385ZM105.699 317.747C103.541 317.747 102.233 320.461 102.233 325.137C102.233 329.812 103.541 332.526 105.699 332.526C107.857 332.526 109.23 329.812 109.23 325.137C109.23 320.461 107.857 317.747 105.699 317.747ZM111.846 321.9C111.993 322.897 112.075 323.976 112.075 325.137C112.075 326.281 111.993 327.36 111.846 328.341H115.442V321.9H111.846ZM155.168 316.767V319.317H151.016V323.044H155.168V325.66H151.016V329.845H147.91V312.483H151.016V316.767H155.168ZM151.016 331.153V341.779H147.91V333.671H131.66V331.153H151.016ZM136.237 314.184C140.717 314.184 144.019 317.061 144.052 321.181C144.019 325.3 140.717 328.178 136.237 328.178C131.758 328.178 128.423 325.3 128.456 321.181C128.423 317.061 131.758 314.184 136.237 314.184ZM136.237 316.832C133.491 316.832 131.464 318.565 131.496 321.181C131.464 323.829 133.491 325.562 136.237 325.529C138.984 325.562 141.011 323.829 141.011 321.181C141.011 318.565 138.984 316.832 136.237 316.832ZM170.274 312.974C176.879 312.974 180.737 314.739 180.737 318.009C180.737 321.279 176.879 323.077 170.274 323.077C163.669 323.077 159.811 321.279 159.811 318.009C159.811 314.739 163.669 312.974 170.274 312.974ZM170.274 315.263C165.599 315.263 163.016 316.276 163.048 318.009C163.016 319.807 165.599 320.755 170.274 320.755C174.95 320.755 177.533 319.807 177.533 318.009C177.533 316.276 174.95 315.263 170.274 315.263ZM183.647 324.875V327.36H156.934V324.875H183.647ZM180.279 329.616V336.482H163.212V339.098H181.097V341.485H160.171V334.226H177.206V331.938H160.138V329.616H180.279ZM204.834 321.115C204.834 326.02 208.038 331.088 212.55 333.017L210.85 335.436C207.401 333.916 204.654 330.695 203.297 326.772C201.94 330.957 199.178 334.521 195.777 336.188L193.979 333.736C198.393 331.676 201.663 326.15 201.695 321.115V318.009H194.993V315.426H211.504V318.009H204.834V321.115ZM218.305 312.483V341.779H215.199V312.483H218.305ZM250.151 316.636V319.186H245.999V322.913H250.151V325.496H245.999V329.78H242.893V312.483H245.999V316.636H250.151ZM231.22 314.184C235.699 314.184 239.002 317.028 239.034 321.148C239.002 325.235 235.699 328.079 231.22 328.112C226.741 328.079 223.406 325.235 223.438 321.148C223.406 317.028 226.741 314.184 231.22 314.184ZM231.22 316.799C228.473 316.799 226.446 318.565 226.479 321.148C226.446 323.764 228.473 325.464 231.22 325.496C233.966 325.464 235.994 323.764 235.994 321.148C235.994 318.565 233.966 316.799 231.22 316.799ZM236.549 330.564C242.533 330.564 246.26 332.624 246.26 336.155C246.26 339.654 242.533 341.746 236.549 341.714C230.501 341.746 226.708 339.654 226.708 336.155C226.708 332.624 230.501 330.564 236.549 330.564ZM236.549 333.082C232.299 333.082 229.781 334.194 229.814 336.155C229.781 338.15 232.299 339.229 236.549 339.229C240.767 339.229 243.22 338.15 243.22 336.155C243.22 334.194 240.767 333.082 236.549 333.082ZM274.739 312.483V324.352H279.447V326.935H274.739V341.779H271.665V312.483H274.739ZM269.115 317.061V319.611H251.753V317.061H258.979V312.876H262.085V317.061H269.115ZM260.549 321.769C264.734 321.769 267.807 324.581 267.84 328.57C267.807 332.592 264.734 335.371 260.549 335.403C256.331 335.371 253.257 332.592 253.257 328.57C253.257 324.581 256.331 321.769 260.549 321.769ZM260.549 324.319C258.064 324.319 256.2 326.052 256.233 328.57C256.2 331.12 258.064 332.82 260.549 332.788C263.033 332.82 264.864 331.12 264.864 328.57C264.864 326.052 263.033 324.319 260.549 324.319ZM295.599 315.295V319.382H302.204V312.483H305.277V341.845H302.204V329.943H295.599V334.455H281.997V315.295H295.599ZM285.071 317.715V331.97H292.558V317.715H285.071ZM295.599 327.426H302.204V321.933H295.599V327.426ZM341.668 315.295V318.172C341.668 321.802 341.668 325.856 340.556 331.84L337.417 331.513C338.562 325.856 338.562 321.704 338.562 318.172V317.813H320.775V315.295H341.668ZM344.676 335.24V337.823H317.963V335.24H328.132V324.908H331.205V335.24H344.676ZM371.879 312.516V329.747H368.937V322.227H365.405V329.583H362.463V313.039H365.405V319.644H368.937V312.516H371.879ZM371.879 331.022V341.779H368.806V333.54H351.869V331.022H371.879ZM359.716 314.609C359.716 321.736 355.891 326.902 348.403 330.009L346.899 327.687C352.817 325.366 356.022 321.72 356.577 317.126H348.175V314.609H359.716ZM385.383 314.576C390.026 314.543 393.328 317.42 393.361 321.54C393.328 325.66 390.026 328.537 385.383 328.537C380.773 328.537 377.372 325.66 377.405 321.54C377.372 317.42 380.773 314.543 385.383 314.576ZM385.383 317.257C382.538 317.257 380.446 318.957 380.478 321.54C380.446 324.123 382.538 325.823 385.383 325.823C388.227 325.823 390.32 324.123 390.32 321.54C390.32 318.957 388.227 317.257 385.383 317.257ZM400.064 312.483V341.845H396.957V312.483H400.064ZM375.999 332.951C381.329 332.951 388.718 332.886 395.126 331.97L395.355 334.226C388.718 335.501 381.623 335.534 376.391 335.534L375.999 332.951ZM437.37 312.483V334.226H434.264V326.15H429.686V323.535H434.264V320.461H429.686V317.911H434.264V312.483H437.37ZM429.359 314.772V317.29H426.547V327.099C427.79 327 428.983 326.902 430.144 326.772L430.275 329.06C424.651 329.943 418.079 330.041 413.371 330.074L412.979 327.458L416.542 327.426V317.29H413.796V314.772H429.359ZM438.122 338.64V341.158H418.275V332.461H421.414V338.64H438.122ZM419.55 327.393C420.875 327.36 422.215 327.327 423.572 327.262V317.29H419.55V327.393ZM451.429 314.576C456.072 314.543 459.375 317.42 459.407 321.54C459.375 325.66 456.072 328.537 451.429 328.537C446.819 328.537 443.419 325.66 443.451 321.54C443.419 317.42 446.819 314.543 451.429 314.576ZM451.429 317.257C448.585 317.257 446.492 318.957 446.525 321.54C446.492 324.123 448.585 325.823 451.429 325.823C454.274 325.823 456.366 324.123 456.366 321.54C456.366 318.957 454.274 317.257 451.429 317.257ZM466.11 312.483V341.845H463.004V312.483H466.11ZM442.046 332.951C447.375 332.951 454.764 332.886 461.173 331.97L461.402 334.226C454.764 335.501 447.669 335.534 442.438 335.534L442.046 332.951ZM493.64 312.483V324.156H498.185V326.739H493.64V341.746H490.534V312.483H493.64ZM485.989 315.557C485.957 324.025 482.229 331.578 472.584 336.352L470.851 333.932C478.191 330.27 482.18 324.973 482.818 318.14H472.322V315.557H485.989ZM519.274 328.047V333.115C521.955 332.968 524.669 332.739 527.219 332.363L527.448 334.651C520.811 335.861 513.716 335.927 508.484 335.927L508.092 333.376C510.446 333.36 513.225 333.344 516.168 333.245V328.047H519.274ZM525.846 316.211V318.728H519.274C519.438 322.161 522.217 325.137 526.598 326.314L525.159 328.733C521.661 327.736 519.045 325.611 517.737 322.815C516.446 325.758 513.879 327.981 510.348 328.995L508.877 326.641C513.242 325.398 515.988 322.325 516.135 318.728H509.661V316.211H516.168V312.712H519.274V316.211H525.846ZM532.156 312.483V341.845H529.05V312.483H532.156ZM563.643 329.126V331.709H551.676V341.779H548.635V331.709H536.832V329.126H563.643ZM550.172 313.595C556.352 313.595 560.602 316.113 560.602 320.102C560.602 324.058 556.352 326.543 550.172 326.543C543.96 326.543 539.742 324.058 539.742 320.102C539.742 316.113 543.96 313.595 550.172 313.595ZM550.172 316.08C545.823 316.113 542.913 317.617 542.946 320.102C542.913 322.554 545.823 324.058 550.172 324.058C554.521 324.058 557.431 322.554 557.431 320.102C557.431 317.617 554.521 316.113 550.172 316.08ZM576.133 317.846C576.133 321.802 578.781 325.66 583.195 327.197L581.495 329.616C578.291 328.39 575.904 325.971 574.662 322.913C573.386 326.314 570.885 328.995 567.436 330.303L565.768 327.851C570.313 326.216 573.027 322.161 573.059 317.747V314.282H576.133V317.846ZM590.225 312.516V334.357H587.119V321.736H580.939V319.186H587.119V312.516H590.225ZM590.879 338.64V341.158H571.098V331.905H574.237V338.64H590.879ZM611.805 319.905V322.325H606.148V324.941C608.78 324.81 611.412 324.63 613.897 324.352L614.028 326.477C607.816 327.426 600.851 327.589 595.293 327.589L594.901 325.169C597.418 325.169 600.181 325.137 603.009 325.039V322.325H597.549V313.726H611.478V316.08H600.753V319.905H611.805ZM619.096 312.516V328.145H616.022V312.516H619.096ZM619.096 329.387V336.482H602.552V339H620.011V341.485H599.511V334.161H616.022V331.84H599.445V329.387H619.096ZM646.855 315.066C646.822 318.957 651.596 322.619 657.35 323.371L656.141 325.921C651.351 325.153 647.133 322.668 645.253 319.219C643.324 322.685 639.122 325.153 634.365 325.921L633.123 323.371C638.877 322.619 643.585 318.99 643.618 315.066V313.464H646.855V315.066ZM658.56 328.799V331.349H646.659V341.779H643.618V331.349H631.847V328.799H658.56ZM679.126 331.84C679.126 334.357 680.369 337.022 683.017 338.608C685.714 336.891 687.039 334.079 687.039 331.84V330.434H690.079V331.84C690.079 334.88 692.074 337.823 695.899 339.065L694.363 341.354C691.469 340.357 689.507 338.411 688.477 335.992C687.545 338.362 685.796 340.504 683.115 341.616C680.303 340.553 678.521 338.477 677.622 336.09C676.56 338.395 674.63 340.341 671.868 341.354L670.298 339.065C674.058 337.725 676.085 334.684 676.118 331.84V330.434H679.126V331.84ZM693.251 312.516V329.191H690.145V312.516H693.251ZM677.361 314.118C681.84 314.118 685.142 316.963 685.142 321.05C685.142 325.104 681.84 327.916 677.361 327.916C672.881 327.916 669.546 325.104 669.546 321.05C669.546 316.963 672.881 314.118 677.361 314.118ZM677.361 316.767C674.581 316.734 672.587 318.467 672.587 321.05C672.587 323.6 674.581 325.333 677.361 325.333C680.107 325.333 682.102 323.6 682.102 321.05C682.102 318.467 680.107 316.734 677.361 316.767ZM721.631 325.987V328.472H712.771V335.632H724.705V338.183H697.894V335.632H709.697V328.472H701.229V314.739H721.37V317.257H704.335V325.987H721.631ZM753.608 328.472V330.989H726.797V328.472H738.666V325.693H730.23V318.238H747.134V315.622H730.165V313.17H750.241V320.527H733.304V323.273H750.829V325.693H741.74V328.472H753.608ZM750.404 333.049V341.55H747.265V335.534H729.805V333.049H750.404ZM4.24246 362.352L6.85816 353.328H9.63734L7.90444 362.352H4.24246ZM26.7702 353.393V372.423H13.0705V353.393H26.7702ZM16.1112 355.846V369.905H23.6967V355.846H16.1112ZM34.7808 350.483V361.96H39.489V364.575H34.7808V379.779H31.6746V350.483H34.7808ZM65.1556 350.483V379.845H62.0495V350.483H65.1556ZM49.4941 352.674C53.8427 352.674 57.0469 356.663 57.0469 362.941C57.0469 369.251 53.8427 373.24 49.4941 373.24C45.0801 373.24 41.9086 369.251 41.9086 362.941C41.9086 356.663 45.0801 352.674 49.4941 352.674ZM49.4941 355.453C46.7803 355.453 44.9166 358.33 44.9166 362.941C44.9166 367.583 46.7803 370.461 49.4941 370.461C52.1752 370.461 54.0389 367.583 54.0389 362.941C54.0389 358.33 52.1752 355.453 49.4941 355.453ZM94.0264 351.366V353.72H89.7759V358.788H93.8956V361.175H72.4142V358.788H76.5666V353.72H72.2834V351.366H94.0264ZM96.544 363.333V365.785H69.8312V363.333H96.544ZM93.1763 368.074V374.777H76.1089V377.131H93.9937V379.485H73.0681V372.586H90.1029V370.395H73.0354V368.074H93.1763ZM79.6401 358.788H86.6698V353.72H79.6401V358.788ZM110.113 353.622V364.052H102.691V370.068C105.879 370.052 108.92 369.938 112.533 369.284L112.794 371.834C108.74 372.553 105.405 372.651 101.71 372.684H99.6829V361.567H107.138V356.14H99.6502V353.622H110.113ZM123.911 350.483V379.779H120.935V350.483H123.911ZM117.895 351.137V378.275H114.952V363.366H111.486V360.848H114.952V351.137H117.895ZM151.997 350.516V371.801H148.891V350.516H151.997ZM152.88 376.64V379.158H132.837V369.643H135.976V376.64H152.88ZM136.107 352.478C140.521 352.478 143.888 355.486 143.888 359.736C143.888 364.052 140.521 367.028 136.107 367.028C131.693 367.028 128.292 364.052 128.292 359.736C128.292 355.486 131.693 352.478 136.107 352.478ZM136.107 355.192C133.36 355.192 131.333 357.055 131.333 359.736C131.333 362.483 133.36 364.314 136.107 364.314C138.788 364.314 140.847 362.483 140.847 359.736C140.847 357.055 138.788 355.192 136.107 355.192ZM180.835 351.366V353.72H176.584V358.788H180.704V361.175H159.223V358.788H163.375V353.72H159.092V351.366H180.835ZM183.353 363.333V365.785H156.64V363.333H183.353ZM179.985 368.074V374.777H162.917V377.131H180.802V379.485H159.877V372.586H176.911V370.395H159.844V368.074H179.985ZM166.449 358.788H173.478V353.72H166.449V358.788ZM210.556 350.516V372.292H207.613V361.665H204.017V371.507H201.107V351.039H204.017V359.115H207.613V350.516H210.556ZM211.406 376.64V379.158H191.134V370.265H194.208V376.64H211.406ZM197.935 352.968V361.567H189.892V365.524C193.521 365.524 196.284 365.327 199.505 364.706L199.832 367.191C196.137 367.878 193.096 368.009 188.813 368.009H186.884V359.213H194.96V355.453H186.818V352.968H197.935ZM218.207 353.328V361.764H215.33V353.328H218.207ZM253.65 350.483V379.845H250.543V350.483H253.65ZM237.988 352.674C242.337 352.674 245.541 356.663 245.541 362.941C245.541 369.251 242.337 373.24 237.988 373.24C233.574 373.24 230.403 369.251 230.403 362.941C230.403 356.663 233.574 352.674 237.988 352.674ZM237.988 355.453C235.274 355.453 233.411 358.33 233.411 362.941C233.411 367.583 235.274 370.461 237.988 370.461C240.669 370.461 242.533 367.583 242.533 362.941C242.533 358.33 240.669 355.453 237.988 355.453ZM290.269 363.562V366.112H281.409V373.567H293.31V376.117H266.499V373.567H278.303V366.112H269.703V352.903H272.842V363.562H290.269ZM309.397 352.249V360.783H299.719V364.837C304.819 364.853 307.598 364.739 310.901 364.118L311.195 366.635C307.631 367.257 304.623 367.355 298.77 367.355H296.645V358.429H306.291V354.734H296.613V352.249H309.397ZM319.86 350.516V368.532H316.753V363.366H311.26V360.881H316.753V357.251H311.26V354.767H316.753V350.516H319.86ZM319.86 370.003V379.812H316.753V372.521H299.98V370.003H319.86ZM347.194 350.483V362.352H351.902V364.935H347.194V379.779H344.12V350.483H347.194ZM341.57 355.061V357.611H324.208V355.061H331.434V350.876H334.54V355.061H341.57ZM333.003 359.769C337.189 359.769 340.262 362.581 340.295 366.57C340.262 370.592 337.189 373.371 333.003 373.403C328.786 373.371 325.712 370.592 325.712 366.57C325.712 362.581 328.786 359.769 333.003 359.769ZM333.003 362.319C330.519 362.319 328.655 364.052 328.688 366.57C328.655 369.12 330.519 370.82 333.003 370.788C335.488 370.82 337.319 369.12 337.319 366.57C337.319 364.052 335.488 362.319 333.003 362.319ZM366.288 352.609C366.288 354.783 365.929 356.777 365.242 358.592H369.394V351.105H372.337V366.897H369.394V361.11H363.934C362.07 364.003 359.111 366.308 355.073 368.009L353.504 365.687C359.308 363.382 362.512 359.785 363.084 355.126H354.845V352.609H366.288ZM378.288 350.516V367.355H375.345V350.516H378.288ZM363.738 370.068C363.705 372.602 364.964 375.251 367.629 376.869C370.294 375.104 371.585 372.259 371.618 370.068V368.303H374.626V370.068C374.626 373.109 376.653 376.117 380.446 377.36L378.942 379.648C376.032 378.618 374.07 376.657 373.056 374.221C372.125 376.575 370.392 378.749 367.661 379.877C364.866 378.815 363.117 376.706 362.234 374.286C361.171 376.64 359.226 378.602 356.479 379.648L354.91 377.36C358.67 376.019 360.763 372.913 360.763 370.068V368.303H363.738V370.068ZM388.62 368.041V371.147H402.385V368.041H405.491V379.42H385.546V368.041H388.62ZM388.62 376.935H402.385V373.567H388.62V376.935ZM408.957 363.627V366.21H382.244V363.627H408.957ZM397.186 352.053C397.186 355.42 401.862 358.69 407.486 359.377L406.374 361.829C401.617 361.159 397.481 358.919 395.617 355.813C393.704 358.935 389.552 361.159 384.86 361.829L383.683 359.377C389.372 358.657 394.015 355.519 394.015 352.053V350.81H397.186V352.053ZM435.506 350.483V379.779H432.4V350.483H435.506ZM416.052 353.328V369.643C420.319 369.611 424.815 369.267 429.523 368.303L429.948 370.918C424.749 371.965 420.041 372.324 415.431 372.324H412.979V353.328H416.052ZM462.938 350.483V361.829H467.647V364.379H462.938V379.845H459.832V350.483H462.938ZM455.059 353.295V355.813H444.465V369.97C449.386 369.954 453.08 369.741 457.249 368.989L457.642 371.605C453.064 372.423 449.173 372.586 443.713 372.553H441.359V353.295H455.059ZM472.388 377.229C471.113 377.229 470.034 376.183 470.066 374.907C470.034 373.632 471.113 372.586 472.388 372.586C473.63 372.586 474.709 373.632 474.709 374.907C474.709 376.183 473.63 377.229 472.388 377.229Z" fill="white"/>
</g>
<defs>
<filter id="filter0_d_8_1935" x="0.0791016" y="308.483" width="757.529" height="75.3939" filterUnits="userSpaceOnUse" color-interpolation-filters="sRGB">
<feFlood flood-opacity="0" result="BackgroundImageFix"/>
<feColorMatrix in="SourceAlpha" type="matrix" values="0 0 0 0 0 0 0 0 0 0 0 0 0 0 0 0 0 0 127 0" result="hardAlpha"/>
<feOffset/>
<feGaussianBlur stdDeviation="2"/>
<feComposite in2="hardAlpha" operator="out"/>
<feColorMatrix type="matrix" values="0 0 0 0 0 0 0 0 0 0 0 0 0 0 0 0 0 0 0.4 0"/>
<feBlend mode="normal" in2="BackgroundImageFix" result="effect1_dropShadow_8_1935"/>
<feBlend mode="normal" in="SourceGraphic" in2="effect1_dropShadow_8_1935" result="shape"/>
</filter>
</defs>
</svg>
