<svg width="295" height="26" viewBox="0 0 295 26" fill="none" xmlns="http://www.w3.org/2000/svg">
<path d="M9.64378 4.63563V15.8597H1.68158V4.63563H9.64378ZM2.61355 5.42577V15.0493H8.69156V5.42577H2.61355ZM14.4049 2.77171V10.1261H17.5857V10.977H14.4049V20.5195H13.4527V2.77171H14.4049ZM86.3078 2.77171V20.5398H85.3353V2.77171H86.3078ZM77.0084 4.23043C79.6017 4.23043 81.4251 6.62111 81.4454 10.3287C81.4251 14.016 79.6017 16.3865 77.0084 16.3865C74.3949 16.3865 72.5715 14.016 72.5715 10.3287C72.5715 6.62111 74.3949 4.23043 77.0084 4.23043ZM77.0084 5.08135C74.9419 5.08135 73.5034 7.26943 73.5034 10.3287C73.5034 13.3677 74.9419 15.5558 77.0084 15.5558C79.0547 15.5558 80.4932 13.3677 80.4932 10.3287C80.4932 7.26943 79.0547 5.08135 77.0084 5.08135ZM101.92 2.60549V11.1898H104.129C106.292 11.1898 107.385 10.7572 107.385 9.73255C107.385 8.70789 106.292 8.29803 104.129 8.29803H102.148L102.831 2.60549H105.632C112.554 2.60549 114.672 5.58838 114.672 9.8464C114.672 14.1272 112.554 17.1101 105.632 17.1101H101.92V21.7324H94.1784V2.60549H101.92ZM131.742 15.1291V21.7324H115.347V2.60549H123.089V15.1291H131.742ZM148.814 2.60549L154.507 21.7324H146.537L145.9 19H140.799L140.162 21.7324H132.192L137.885 2.60549H148.814ZM142.074 13.5352H144.625L143.349 8.0931L142.074 13.5352ZM154.973 21.7324V2.60549H162.942L167.952 11.8274V2.60549H175.011V21.7324H167.041L162.032 12.5105V21.7324H154.973ZM193.111 8.41188H183.32V9.77809H192.883V14.3321H183.32V15.6983H193.225V21.7324H175.92V2.60549H193.111V8.41188ZM206.054 2.55116V11.164H208.27C210.44 11.164 211.537 10.7299 211.537 9.70184C211.537 8.67378 210.44 8.26256 208.27 8.26256H206.282L206.967 2.55116H209.777C216.723 2.55116 218.847 5.54393 218.847 9.81606C218.847 14.111 216.723 17.1038 209.777 17.1038H206.054V21.7415H198.286V2.55116H206.054ZM235.974 15.1162V21.7415H219.525V2.55116H227.293V15.1162H235.974ZM253.103 2.55116L258.815 21.7415H250.819L250.179 19H245.061L244.422 21.7415H236.426L242.137 2.55116H253.103ZM246.341 13.5171H248.9L247.62 8.05695L246.341 13.5171ZM259.282 21.7415V2.55116H267.278L272.304 11.8036V2.55116H279.386V21.7415H271.39L266.364 12.489V21.7415H259.282ZM280.527 15.8016V2.55116H288.294V16.2585L280.527 15.8016ZM280.527 21.7415V16.5784H288.294V21.7415H280.527Z" fill="#373D42"/>
<line x1="21.0537" y1="11.5951" x2="68.0203" y2="11.5951" stroke="#373D42" stroke-width="0.809769"/>
</svg>
