<svg width="46" height="46" viewBox="0 0 46 46" fill="none" xmlns="http://www.w3.org/2000/svg">
<g clip-path="url(#clip0_8_1985)">
<path d="M8.37296 14.8195L15.5073 16.8792L23.349 11.1841L12.0952 11.5067C11.9849 11.5116 11.8778 11.5458 11.7851 11.6059L8.22407 13.6532C8.1133 13.7146 8.02349 13.8078 7.96626 13.9207C7.90903 14.0337 7.88701 14.1612 7.90304 14.2868C7.91908 14.4125 7.97244 14.5304 8.05621 14.6253C8.13999 14.7203 8.25033 14.7879 8.37296 14.8195Z" fill="#2067D1"/>
<path d="M43.4491 8.44215L35.6323 6.75471C34.9749 6.61199 34.2945 6.61237 33.6372 6.7558C32.98 6.89924 32.3613 7.18239 31.8231 7.58602L8.21143 24.7458L2.54115 24.4976C2.21636 24.4866 1.89631 24.5778 1.62619 24.7585C1.35607 24.9392 1.14952 25.2001 1.03571 25.5045C0.921908 25.8089 0.906593 26.1414 0.991931 26.4549C1.07727 26.7685 1.25895 27.0474 1.51132 27.2521L7.03271 31.632C7.12361 31.7053 7.2318 31.7541 7.34694 31.7736C7.46208 31.7932 7.58031 31.7829 7.69031 31.7437C9.26608 31.1357 15.1349 28.0214 22.0707 24.2122L23.4604 38.4934C23.4722 38.6171 23.5175 38.7352 23.5915 38.835C23.6655 38.9348 23.7653 39.0125 23.8803 39.0598C23.9952 39.107 24.1208 39.122 24.2436 39.1031C24.3664 39.0842 24.4817 39.0321 24.5771 38.9525L27.679 36.3717C27.8488 36.2293 27.963 36.0316 28.0016 35.8134L30.9422 19.3236C35.9052 16.5691 40.645 13.9015 43.9826 12.0155C44.329 11.8271 44.609 11.5367 44.7848 11.1837C44.9607 10.8307 45.0237 10.4323 44.9655 10.0423C44.9073 9.65226 44.7305 9.28958 44.4593 9.00337C44.1881 8.71715 43.8354 8.52123 43.4491 8.44215Z" fill="#2067D1"/>
</g>
<defs>
<clipPath id="clip0_8_1985">
<rect width="44.6674" height="44.6674" fill="white" transform="translate(0.618652 0.55127)"/>
</clipPath>
</defs>
</svg>
