<svg width="800" height="984" viewBox="0 85 1336 700" fill="none" xmlns="http://www.w3.org/2000/svg">
<path d="M959.067 576.503C915.558 609.587 862.405 627.5 807.746 627.5L0 627.5V244.5L808.096 244.5C862.54 244.5 915.495 262.273 958.916 295.118L1039.34 355.955C1092.16 395.904 1092.25 475.227 1039.54 515.309L959.067 576.503Z" fill="#D9D9D9"/>
<path d="M1086.08 813.105C1094.75 825.735 1079.5 840.999 1066.86 832.339L707 585.757L930 585.757L1086.08 813.105Z" fill="#D9D9D9"/>
<path d="M1051.07 36.9764C1063.01 28.2212 1078.5 41.819 1071.37 54.7927L934.583 303.5L687.583 303.5L1051.07 36.9764Z" fill="#D9D9D9"/>
<rect x="777" y="396.5" width="559" height="80" rx="40" fill="#D9D9D9"/>
<path d="M900.433 419.059V454.138H894.919V419.059H900.433ZM870.562 437.632C877.226 437.594 885.651 437.632 893.119 436.79L893.348 440.811C890.534 441.271 887.681 441.558 884.885 441.73V453.142H879.409V441.998C876.498 442.075 873.683 442.075 871.098 442.075L870.562 437.632ZM891.051 429.896V434.301H873.549V420.897H890.668V425.224H879.064V429.896H891.051Z" fill="#F9F9F9"/>
</svg>
