<svg width="66" height="66" viewBox="0 0 66 66" fill="none" xmlns="http://www.w3.org/2000/svg">
<g clip-path="url(#clip0_8_1976)">
<path d="M11.4585 21.0832L22.0001 24.1265L33.5868 15.7115L16.9585 16.1882C16.7954 16.1954 16.6371 16.246 16.5001 16.3349L11.2385 19.3599C11.0748 19.4506 10.9421 19.5883 10.8575 19.7552C10.773 19.9221 10.7404 20.1105 10.7641 20.2961C10.7878 20.4818 10.8667 20.656 10.9904 20.7963C11.1142 20.9366 11.2773 21.0366 11.4585 21.0832Z" fill="white"/>
<path d="M63.2867 11.66L51.7367 9.16666C50.7653 8.95578 49.76 8.95633 48.7889 9.16828C47.8177 9.38022 46.9035 9.79859 46.1084 10.395L11.22 35.75L2.8417 35.3833C2.3618 35.367 1.8889 35.5019 1.48977 35.7688C1.09064 36.0358 0.785445 36.4214 0.617287 36.8711C0.449129 37.3209 0.4265 37.8121 0.552595 38.2755C0.67869 38.7388 0.947139 39.1508 1.32004 39.4533L9.47837 45.925C9.61268 46.0333 9.77254 46.1054 9.94267 46.1343C10.1128 46.1632 10.2875 46.1479 10.45 46.09C12.7784 45.1917 21.45 40.59 31.6984 34.9617L33.7517 56.0633C33.7691 56.2461 33.8361 56.4206 33.9454 56.5681C34.0548 56.7156 34.2023 56.8304 34.3721 56.9002C34.5419 56.97 34.7275 56.9921 34.909 56.9642C35.0904 56.9363 35.2608 56.8593 35.4017 56.7417L39.985 52.9283C40.2359 52.7179 40.4047 52.4258 40.4617 52.1033L44.8067 27.7383C52.14 23.6683 59.1434 19.7267 64.075 16.94C64.5868 16.6615 65.0006 16.2324 65.2604 15.7109C65.5202 15.1894 65.6134 14.6006 65.5273 14.0243C65.4413 13.448 65.1802 12.9122 64.7794 12.4892C64.3786 12.0663 63.8575 11.7768 63.2867 11.66Z" fill="white"/>
</g>
<defs>
<clipPath id="clip0_8_1976">
<rect width="66" height="66" fill="white"/>
</clipPath>
</defs>
</svg>
