<svg width="800" height="383" viewBox="0 0 1452 383" fill="none" xmlns="http://www.w3.org/2000/svg">
<path d="M333.228 18.1263C356.063 6.21831 381.435 0 407.189 0H1452V383H407.044C381.383 383 356.099 376.826 333.326 365L136.389 262.728C78.954 232.902 78.884 150.763 136.268 120.838L333.228 18.1263Z" fill="#D9D9D9"/>
<path d="M224.595 174.559V182.026H229.152V186.469H224.595V193.937H219.08V174.559H224.595ZM225.17 195.354V199.681H221.11V204.736H225.591V209.14H201.043V204.736H205.409V199.681H201.273V195.354H225.17ZM206.481 176.244C211.957 176.244 216.17 179.805 216.17 184.784C216.17 189.724 211.957 193.247 206.481 193.247C200.928 193.247 196.677 189.724 196.715 184.784C196.677 179.805 200.928 176.244 206.481 176.244ZM206.481 180.839C203.992 180.839 202.077 182.218 202.115 184.784C202.077 187.273 203.992 188.69 206.481 188.652C208.894 188.69 210.77 187.273 210.808 184.784C210.77 182.218 208.894 180.839 206.481 180.839ZM210.808 204.736H215.749V199.681H210.808V204.736Z" fill="#F9F9F9"/>
</svg>
