<svg width="42" height="42" viewBox="0 0 42 42" fill="none" xmlns="http://www.w3.org/2000/svg">
<path d="M30.2297 16.2774C30.0679 16.1153 29.8758 15.9867 29.6643 15.899C29.4528 15.8113 29.2261 15.7661 28.9971 15.7661C28.7681 15.7661 28.5414 15.8113 28.3299 15.899C28.1184 15.9867 27.9263 16.1153 27.7645 16.2774L20.9809 23.061L14.1974 16.2774C13.8705 15.9505 13.4271 15.7669 12.9648 15.7669C12.5025 15.7669 12.0591 15.9505 11.7322 16.2774C11.4053 16.6043 11.2216 17.0477 11.2216 17.51C11.2216 17.9723 11.4053 18.4157 11.7322 18.7426L19.7571 26.7675C19.9188 26.9296 20.111 27.0581 20.3225 27.1459C20.534 27.2336 20.7607 27.2788 20.9897 27.2788C21.2187 27.2788 21.4454 27.2336 21.6569 27.1459C21.8684 27.0581 22.0605 26.9296 22.2223 26.7675L30.2472 18.7426C30.9115 18.0782 30.9115 16.9593 30.2297 16.2774Z" fill="black"/>
</svg>
