<svg width="772" height="449" viewBox="0 0 772 449" fill="none" xmlns="http://www.w3.org/2000/svg">
<g filter="url(#filter0_d_8_1939)">
<rect x="197" y="340" width="378.613" height="105" rx="26.0331" fill="white"/>
<path d="M304.748 380.151V400.386H290.119V380.151H304.748ZM293.845 383.125V397.344H300.954V383.125H293.845ZM313.225 377.144V389.004H317.976V392.217H313.225V408.042H309.431V377.144H313.225ZM344.978 377.144V408.076H341.149V377.144H344.978ZM328.332 379.399C332.98 379.399 336.364 383.638 336.398 390.303C336.364 397.036 332.98 401.24 328.332 401.24C323.649 401.24 320.266 397.036 320.266 390.303C320.266 383.638 323.649 379.399 328.332 379.399ZM328.332 382.817C325.7 382.817 323.923 385.586 323.923 390.303C323.923 395.054 325.7 397.822 328.332 397.822C330.93 397.822 332.707 395.054 332.707 390.303C332.707 385.586 330.93 382.817 328.332 382.817ZM375.09 378.032V380.903H370.852V385.586H374.919V388.457H352.224V385.586H356.291V380.903H352.053V378.032H375.09ZM377.688 390.405V393.413H349.523V390.405H377.688ZM374.167 395.498V402.847H356.599V404.932H375.021V407.769H352.873V400.215H370.441V398.267H352.839V395.498H374.167ZM360.085 385.586H367.023V380.903H360.085V385.586ZM391.667 380.356V391.704H384.353V397.515C387.548 397.48 390.573 397.344 394.06 396.694L394.367 399.805C390.231 400.557 386.745 400.659 382.849 400.659H380.695V388.696H388.01V383.398H380.661V380.356H391.667ZM406.364 377.144V408.042H402.741V377.144H406.364ZM400.007 377.793V406.47H396.418V390.986H393.034V387.876H396.418V377.793H400.007ZM435.759 377.178V399.497H431.931V377.178H435.759ZM436.613 404.351V407.427H415.319V397.241H419.147V404.351H436.613ZM418.908 379.194C423.591 379.194 427.214 382.441 427.214 386.919C427.214 391.499 423.591 394.678 418.908 394.678C414.191 394.678 410.568 391.499 410.568 386.919C410.568 382.441 414.191 379.194 418.908 379.194ZM418.908 382.51C416.276 382.51 414.26 384.253 414.294 386.919C414.26 389.653 416.276 391.362 418.908 391.362C421.472 391.362 423.488 389.653 423.488 386.919C423.488 384.253 421.472 382.51 418.908 382.51ZM465.837 378.032V380.903H461.599V385.586H465.666V388.457H442.971V385.586H447.038V380.903H442.8V378.032H465.837ZM468.435 390.405V393.413H440.271V390.405H468.435ZM464.914 395.498V402.847H447.346V404.932H465.769V407.769H443.62V400.215H461.188V398.267H443.586V395.498H464.914ZM450.832 385.586H457.771V380.903H450.832V385.586ZM496.94 377.178V400.112H493.317V389.209H490.104V399.395H486.55V377.759H490.104V386.099H493.317V377.178H496.94ZM497.795 404.351V407.427H476.262V397.959H480.056V404.351H497.795ZM483.542 379.707V389.072H475.51V392.73C479.099 392.695 481.833 392.507 484.978 391.909L485.319 394.951C481.594 395.601 478.449 395.737 473.938 395.737H471.818V386.201H479.885V382.715H471.784V379.707H483.542Z" fill="#353535"/>
<path d="M260.85 407.125L250.613 396.888C249.8 397.538 248.866 398.052 247.809 398.431C246.753 398.81 245.629 399 244.438 399C241.485 399 238.987 397.977 236.943 395.932C234.899 393.887 233.876 391.389 233.875 388.438C233.874 385.487 234.897 382.988 236.943 380.943C238.989 378.898 241.488 377.875 244.438 377.875C247.387 377.875 249.886 378.898 251.934 380.943C253.981 382.988 255.003 385.487 255 388.438C255 389.629 254.81 390.753 254.431 391.809C254.052 392.866 253.538 393.8 252.888 394.613L263.125 404.85L260.85 407.125ZM244.438 395.75C246.469 395.75 248.196 395.039 249.618 393.618C251.04 392.197 251.751 390.47 251.75 388.438C251.749 386.405 251.038 384.679 249.618 383.259C248.198 381.838 246.471 381.127 244.438 381.125C242.404 381.123 240.678 381.834 239.259 383.259C237.839 384.683 237.128 386.41 237.125 388.438C237.122 390.466 237.833 392.192 239.259 393.618C240.684 395.044 242.411 395.754 244.438 395.75Z" fill="black"/>
</g>
<g filter="url(#filter1_d_8_1939)">
<path d="M218.537 214.52C218.537 206.48 220.937 181.28 222.017 173.24C222.377 170.48 222.617 167.48 223.097 164.72C223.337 163.28 224.297 161.84 225.857 161.84C227.777 161.84 230.057 162.44 229.697 165.08C228.977 169.52 227.057 180.8 226.577 186.68C225.857 194.6 224.657 208.88 224.057 214.52C223.937 215.24 223.097 218.24 221.177 218.24C218.897 218.24 218.537 214.88 218.537 214.52ZM188.897 163.52C188.777 160.52 196.697 157.52 199.697 156.2C208.697 152.6 215.657 151.28 225.137 150.68C229.457 150.44 236.897 150.44 241.337 151.28C243.257 151.64 244.817 152.6 245.897 153.8C246.257 154.28 246.257 156.2 245.657 156.32L244.937 156.44C243.137 156.32 241.577 156.08 239.777 155.96C238.097 155.72 233.057 155.48 227.417 155.84C218.177 156.44 209.897 158.84 201.377 162.2C199.457 163.04 197.297 164.12 195.977 165.08C194.177 166.52 193.457 167.6 191.297 167.72C189.497 167.84 189.017 165.08 188.897 163.52ZM230.417 134.6C230.297 136.28 227.657 137.12 223.457 138.08C220.457 138.8 218.177 139.28 214.697 140C211.697 140.6 208.817 141.2 205.817 141.2C205.097 141.2 202.817 141.08 201.857 140.72C198.737 139.52 198.017 137.84 198.017 134.36C198.017 130.64 199.937 126.8 202.457 122.72C202.937 122 205.937 117.56 206.537 116.72C207.497 115.52 208.697 114.8 210.377 114.8C211.817 114.8 212.777 115.64 212.657 117.2C212.537 118.64 210.137 122.36 208.937 124.16C207.257 126.56 205.457 129.44 205.217 131.6C204.977 133.88 206.057 134.84 207.977 134.72C214.937 134.36 218.897 133.16 226.097 131.72C228.257 131.24 230.537 131.84 230.417 134.6ZM278.896 208.04C278.896 204.08 279.016 201.8 279.376 197.84C279.616 195.32 280.696 187.16 281.176 184.88C282.136 180.08 283.816 171.56 284.416 166.52C284.536 165.2 284.776 163.4 285.496 162.32C286.576 160.88 291.016 160.88 291.496 162.8C291.496 162.8 291.616 163.76 291.616 164.24C291.616 168.68 289.936 172.04 289.096 176.48C288.736 178.52 286.456 192.92 286.216 194.6C284.776 202.88 284.416 210.32 284.416 219.2C283.936 220.16 282.376 220.16 281.416 220.16C278.296 220.16 278.896 214.88 278.896 212.96V208.04ZM253.936 165.2C253.816 164.24 254.296 162.8 255.256 162.32C268.936 154.4 284.896 151.04 300.616 151.04H306.856C311.056 151.04 315.016 151.28 315.376 153.92C315.496 154.64 315.376 156.68 312.856 156.56C300.616 155.96 289.096 156.92 277.336 160.28C274.096 161.24 269.176 162.68 265.576 164.72C263.416 165.92 260.296 168.68 257.056 168.68C255.376 168.68 254.176 167.36 253.936 165.2ZM272.176 148.52C272.296 147.44 272.656 146.48 273.496 145.04C276.136 140.72 277.696 137.72 279.376 133.04C280.216 130.76 280.576 128.96 280.816 127.04C281.056 125.24 279.496 124.28 277.336 124.28C274.096 124.28 269.416 125.6 267.496 126.2C265.456 126.8 264.376 125.36 264.376 123.56C264.376 120.44 268.336 119.48 270.976 119C273.616 118.52 278.536 118.16 281.176 118.64C284.896 119.24 287.176 121.28 287.056 125.96C287.056 128.12 286.816 128.84 286.456 130.64C285.136 137 282.136 143.12 278.776 147.68C278.056 148.64 277.096 149.48 275.896 149.96C274.336 150.56 272.056 149.84 272.176 148.52ZM325.6 173.72C324.88 169.16 325.96 153.44 328 144.56C328.36 143 328.6 140.12 331.96 140.12C333.4 140.12 335.2 141.68 334.84 143.6C334.24 146.72 333.64 153.08 332.92 156.08C332.32 158.84 331.84 164.72 331.72 168.56C331.6 170.84 332.92 171.56 334.24 171.08C341.08 168.92 351.64 163.52 356.08 162.44C357.16 162.2 357.76 162.8 358.12 163.52C358.48 164.48 358.24 166.04 356.92 167.12C355.6 168.32 354.04 169.28 352.48 170.24C349.84 171.92 338.2 177.68 332.8 178.76C329.8 179.36 326.2 177.44 325.6 173.72ZM367.12 189.56C366.76 188.24 366.76 176.36 366.64 175.4C366.52 174.44 366.04 173.72 366.16 172.64C367.6 160.04 369.52 143.12 372.28 130.4C372.64 128.96 373 127.16 375.04 127.16C377.32 127.16 378.76 128.6 378.76 130.88C378.76 133.64 377.44 136.04 376.96 138.32C375.28 145.76 373.96 158.6 373.48 166.52C377.32 164.72 386.8 162.92 391.48 162.8C391.48 162.8 393.88 162.68 394.36 162.92C395.08 163.28 395.56 163.52 395.2 165.08C394.6 167.6 382 169.16 376.96 172.04C374.44 173.48 373.12 175.52 373.12 178.64C373.12 182 374.2 192.44 374.2 195.68C374.2 197 372.64 197.6 371.8 197.6C368.08 197.6 367.72 191.96 367.12 189.56ZM461.485 187.16C461.965 182.12 462.445 177.8 463.525 173C463.765 172.16 464.845 171.32 465.925 171.32C467.125 171.32 468.205 171.44 469.165 172.4C469.885 173.12 469.645 174.8 469.645 175.16C468.925 179.36 468.445 182.48 468.085 186.68C467.725 190.16 467.605 191.6 467.605 195.2C472.285 191.84 475.285 191 480.085 189.56C481.285 184.64 482.605 179.48 483.205 176.96C483.445 176.12 484.405 175.4 485.845 175.4C488.245 175.4 489.325 176.24 489.325 178.16C489.325 179.36 488.965 180.44 488.605 182C487.285 188 485.125 195.56 483.085 202.4C482.845 203.12 481.285 207.8 480.805 209C479.845 211.76 478.285 214.88 473.965 215.96C471.925 216.44 466.765 214.4 466.885 212.48H466.165C464.245 212.48 462.805 209.36 462.445 207.8C461.005 200.84 460.885 194.12 461.485 187.16ZM439.765 155C444.685 153.56 449.845 152.6 455.845 151.4C458.605 150.8 461.005 150.68 464.005 150.2C466.525 149.72 469.045 149.84 469.885 149.84C471.565 150.08 473.245 150.68 473.605 152.48C473.845 153.68 472.765 154.64 470.605 155C469.765 155.12 467.365 155.48 466.525 155.6C462.085 156.44 461.845 156.32 457.765 157.16C456.805 157.4 453.565 158 452.245 158.72C452.605 159.2 452.845 159.68 452.845 160.4C452.845 161.6 452.245 161.84 451.885 162.68C450.805 165.68 449.965 168.68 449.365 171.8C448.285 177.56 447.685 184.88 446.605 196.88C446.605 197.84 446.125 199.28 444.325 199.4C441.805 199.52 441.325 197.48 441.205 196.16C440.965 193.52 441.085 188.24 441.325 185.48C441.805 178.88 442.285 173.96 443.725 167.6C444.325 164.84 444.925 162.56 445.885 159.8C442.645 160.16 437.965 162.08 433.405 164C431.485 164.84 430.645 166.16 428.365 166.16C426.685 166.16 425.125 165.08 425.125 163.28C425.125 162.56 425.245 161 427.165 159.92C431.125 157.64 434.965 156.32 439.765 155ZM425.245 145.52C427.765 139.76 432.325 136.16 437.125 131.72C440.485 128.72 444.445 125.48 447.205 123.32C448.645 122.24 449.965 121.16 451.645 120.68C452.845 120.32 455.365 121.16 455.365 122.72C455.365 125.12 451.765 127.76 449.845 129.56C457.165 130.64 459.685 131.24 464.485 132.68C467.245 133.52 469.525 134.36 469.165 135.92C468.805 138.2 467.125 138.44 465.085 138.08C458.005 136.16 456.085 135.8 452.245 135.44C448.405 135.08 445.165 135.56 442.525 136.64C441.325 137.12 439.765 138.2 438.565 139.16C436.045 141.2 434.365 143 431.245 147.44C430.045 149.12 428.485 150.2 426.445 149.48C424.765 149 424.405 147.56 425.245 145.52ZM481.525 171.8C479.965 171.8 479.485 170.48 479.485 169.04C479.605 165.08 479.845 161.12 480.805 155.6C481.165 153.56 481.885 150.68 482.365 148.52C483.685 142.04 484.405 138.2 485.245 133.64C485.725 131.36 485.965 129.32 489.085 129.32C491.125 129.32 492.805 130.52 492.445 132.92C491.725 137.72 490.645 142.4 489.565 147.32C488.965 150.2 488.245 152.84 487.645 155.72C486.805 160.16 486.445 162.08 485.725 167C485.365 169.16 484.165 171.8 481.525 171.8ZM476.965 201.56C477.205 200.48 477.685 198.68 478.285 196.4C475.285 197.96 473.845 198.8 470.605 200.96C469.405 201.8 468.685 202.16 468.685 204.08C468.685 206.12 469.045 207.92 469.405 210.56C469.405 211.16 469.165 211.52 468.805 211.76C469.405 212 470.125 212.24 470.725 212.12C473.245 211.64 474.685 208.64 475.045 207.44C475.525 206 476.605 203.12 476.965 201.56ZM549.489 178.4C549.489 174.32 549.849 170.48 550.689 165.92C546.609 168.56 540.729 171.2 535.809 173.6C532.449 175.04 529.569 176.6 527.169 178.16C524.169 180.08 522.609 183.44 521.889 188.6C521.529 191.24 515.049 192.2 515.769 186.92C516.249 183.44 517.089 180.2 518.409 176.24C520.689 169.76 522.369 163.64 524.049 157.16C524.289 155.96 524.649 154.64 524.649 154.4C525.009 152.72 524.049 151.88 522.609 151.88C518.649 151.88 514.809 153.68 511.809 155.48C510.249 156.32 509.049 157.28 507.369 157.64C505.329 158.12 504.249 155.72 504.249 153.92C504.249 149.6 518.289 146 522.249 145.76C528.249 145.4 531.969 146.84 531.729 151.76C531.369 158.6 528.609 164.48 526.929 170.96C529.689 169.88 532.209 168.56 534.729 167.36C542.049 164 547.209 161.48 551.649 158.72C552.609 156.2 553.329 154.28 554.169 151.4C554.289 150.92 555.009 149.6 555.009 149.6C555.609 148.28 558.729 148.64 559.809 149.6C560.769 150.32 560.769 152.36 560.769 153.08C560.769 155.72 559.209 157.04 558.729 159.08C556.209 169.16 555.489 178.16 555.489 188.6C555.489 189.92 554.049 190.64 552.969 190.64C551.289 190.64 550.569 189.44 550.209 188.12C549.369 185.12 549.489 181.64 549.489 178.4ZM569.169 176.6C569.169 174.92 569.169 169.52 571.209 160.52C572.049 157.28 572.649 155 573.369 152.36C574.329 148.04 575.289 143.84 576.849 139.88C577.209 138.92 577.809 137.84 578.649 137.36C580.689 136.28 584.529 137.36 584.529 140.84C584.529 142.52 584.049 143 583.089 144.32C583.089 144.32 582.489 146.12 582.369 146.36C578.889 156.56 576.249 166.28 574.689 176.6C574.329 179 573.969 180.2 571.449 180.2C569.889 180.2 569.169 178.88 569.169 176.6ZM99.2216 220.594V275.922H90.0701V248.945H86.6607V273.409H77.6886V221.431H86.6607V241.289H90.0701V220.594H99.2216ZM62.7351 226.396V254.628C66.5632 254.478 70.7203 254.089 75.1764 253.252L76.0736 261.447C68.8959 262.643 62.5556 263.002 57.0527 263.002H53.1648V226.396H62.7351ZM164.239 220.594V276.101H154.55V220.594H164.239ZM129.607 224.84V237.521H138.579V224.84H148.03V263.42H119.977V224.84H129.607ZM129.607 255.704H138.579V244.938H129.607V255.704ZM218.311 220.594V255.106H209.22V241.229H206.707V253.372H197.735V221.61H206.707V233.454H209.22V220.594H218.311ZM196.539 225.738V233.095H170.161V225.738H178.595V221.192H188.105V225.738H196.539ZM183.44 234.231C190.498 234.231 195.642 238.239 195.702 244.041C195.642 249.783 190.498 253.731 183.44 253.731C176.561 253.731 171.417 249.783 171.417 244.041C171.417 238.239 176.561 234.231 183.44 234.231ZM183.44 241.05C181.346 241.05 179.911 242.007 179.911 244.041C179.911 246.015 181.346 247.031 183.44 247.031C185.593 247.031 186.969 246.015 187.029 244.041C186.969 242.007 185.593 241.05 183.44 241.05ZM198.991 255.346C211.194 255.346 218.551 259.114 218.61 265.693C218.551 272.273 211.194 276.041 198.991 276.041C186.969 276.041 179.492 272.273 179.552 265.693C179.492 259.114 186.969 255.346 198.991 255.346ZM198.991 262.463C192.232 262.463 189.122 263.301 189.122 265.693C189.122 267.966 192.232 268.864 198.991 268.864C205.87 268.864 208.861 267.966 208.921 265.693C208.861 263.301 205.87 262.463 198.991 262.463ZM270.35 220.594V275.922H260.6V220.594H270.35ZM253.602 226.276C253.602 243.622 248.697 257.439 228.181 267.009L223.276 259.473C237.093 252.893 242.626 245.297 243.852 233.753H226.446V226.276H253.602ZM321.491 224.601V232.377H311.382C312.04 236.983 315.24 241.648 323.285 243.861L318.739 251.218C312.758 249.663 308.78 246.463 306.417 242.366C303.995 246.942 299.898 250.56 293.677 252.295L288.892 244.938C297.206 242.545 300.496 237.491 301.214 232.377H291.045V224.601H321.491ZM311.083 249.903V258.037C314.851 257.828 318.62 257.499 322.149 257.02L322.806 263.839C311.382 266.172 299.359 266.052 290.268 266.112L289.071 258.396C292.81 258.396 297.057 258.426 301.513 258.336V249.903H311.083ZM340.93 241.768V249.663H334.351V275.922H324.721V220.594H334.351V241.768H340.93ZM364.497 229.147C364.437 235.547 367.129 242.007 376.34 244.758L371.375 252.355C365.633 250.501 361.835 246.972 359.592 242.486C357.11 247.301 353.102 251.099 347.091 253.132L341.887 245.476C351.816 242.545 354.687 235.428 354.747 228.489V223.525H364.497V229.147ZM389.679 255.824V275.922H380.108V263.361H351.218V255.824H389.679ZM389.679 220.594V253.731H380.108V237.88H371.017V230.104H380.108V220.594H389.679ZM446.023 248.347V255.884H395.54V248.347H446.023ZM440.162 267.488V275.144H401.342V258.875H410.972V267.488H440.162ZM420.782 222.149C432.984 222.149 441.178 226.575 441.238 233.693C441.178 240.93 432.984 245.416 420.782 245.416C408.46 245.416 400.206 240.93 400.266 233.693C400.206 226.575 408.46 222.149 420.782 222.149ZM420.782 229.685C413.843 229.745 410.195 231.001 410.255 233.693C410.195 236.564 413.843 237.7 420.782 237.641C427.601 237.7 431.309 236.564 431.309 233.693C431.309 231.001 427.601 229.745 420.782 229.685ZM461.754 265.335L456.192 282.86H448.595L451.347 265.335H461.754ZM525.337 220.594V275.922H516.185V248.945H512.776V273.409H503.804V221.431H512.776V241.289H516.185V220.594H525.337ZM488.85 226.396V254.628C492.678 254.478 496.835 254.089 501.292 253.252L502.189 261.447C495.011 262.643 488.671 263.002 483.168 263.002H479.28V226.396H488.85ZM588.261 267.488V275.144H549.442V258.994H559.072V267.488H588.261ZM594.003 248.706V256.183H543.64V248.706H563.977V241.828H573.547V248.706H594.003ZM573.667 223.465C573.667 229.745 577.375 236.026 591.611 237.641L587.962 245.117C578.302 243.742 572.022 240.123 568.642 235.009C565.173 240.093 558.982 243.831 549.561 245.117L545.853 237.641C559.73 235.906 563.857 229.207 563.857 223.465V222.268H573.667V223.465ZM621.817 222.986C633.54 222.986 642.991 229.506 642.991 239.315C642.991 249.304 633.54 255.764 621.817 255.764C610.033 255.764 600.643 249.304 600.702 239.315C600.643 229.506 610.033 222.986 621.817 222.986ZM621.817 230.702C614.878 230.702 610.033 233.872 610.033 239.315C610.033 244.938 614.878 247.869 621.817 247.929C628.636 247.869 633.421 244.938 633.481 239.315C633.421 233.872 628.636 230.702 621.817 230.702ZM647.118 261.925V269.641H596.575V261.925H647.118ZM700.054 262.463V270.239H649.511V262.463H669.967V255.405H655.014V235.846H685.1V231.54H654.954V223.883H694.611V243.263H664.644V247.689H695.867V255.405H679.478V262.463H700.054ZM717.34 226.695L716.323 256.542H706.932L705.856 226.695H717.34ZM711.598 270.658C708.368 270.658 705.736 268.086 705.796 264.856C705.736 261.686 708.368 259.114 711.598 259.114C714.648 259.114 717.4 261.686 717.4 264.856C717.4 268.086 714.648 270.658 711.598 270.658Z" fill="white"/>
</g>
<path d="M424.328 0.628265C419.832 0.628265 415.339 2.57725 414.632 6.47205C417.78 5.39573 421.184 4.83706 424.59 4.82753C427.791 4.81886 430.993 5.29549 433.987 6.27475C433.166 2.51081 428.748 0.628265 424.328 0.628265ZM424.6 10.0734C421.463 10.082 418.315 10.6294 415.586 11.6959C413.643 12.4556 411.409 13.5958 409.833 14.8769C408.257 16.1581 407.492 17.397 407.492 18.538V33.6273L441.164 21.1095V18.538C441.164 17.4077 440.432 16.1474 438.958 14.8636C437.483 13.5811 435.386 12.4299 433.543 11.6826C430.861 10.5942 427.737 10.0647 424.6 10.0734ZM458 20.4394L332.463 67.1082C330.825 67.8977 328.393 70.21 326.073 73.4517C323.736 76.717 321.42 80.864 319.403 85.1632C316.25 91.8863 313.889 99.1675 313 103.758C319.777 102.61 326.672 101.434 333.616 100.26L335.367 89.2972C344.812 86.7223 369.349 80.9152 382.596 77.6212L382.682 77.4594L382.876 77.551C412.563 70.1759 432.21 66.5411 458 63.6923V20.4394ZM458 68.9211C450.137 69.7955 442.856 70.7439 435.682 71.8537L424.935 86.9799C436.815 85.7985 447.968 85.0517 458 84.9255V68.9211ZM428.178 73.0799C415.393 75.2834 402.381 78.1068 386.413 82.0443L380.802 92.6371C393.5 90.7364 405.94 89.0459 417.766 87.7342L428.178 73.0799ZM379.311 83.8191C368.057 86.6662 355.221 90.0659 340.156 94.1201L339.338 99.2972C350.91 97.352 362.579 95.431 374.1 93.6556L379.311 83.8191Z" fill="white"/>
<defs>
<filter id="filter0_d_8_1939" x="193" y="336" width="386.613" height="113" filterUnits="userSpaceOnUse" color-interpolation-filters="sRGB">
<feFlood flood-opacity="0" result="BackgroundImageFix"/>
<feColorMatrix in="SourceAlpha" type="matrix" values="0 0 0 0 0 0 0 0 0 0 0 0 0 0 0 0 0 0 127 0" result="hardAlpha"/>
<feOffset/>
<feGaussianBlur stdDeviation="2"/>
<feComposite in2="hardAlpha" operator="out"/>
<feColorMatrix type="matrix" values="0 0 0 0 0 0 0 0 0 0 0 0 0 0 0 0 0 0 0.25 0"/>
<feBlend mode="normal" in2="BackgroundImageFix" result="effect1_dropShadow_8_1939"/>
<feBlend mode="normal" in="SourceGraphic" in2="effect1_dropShadow_8_1939" result="shape"/>
</filter>
<filter id="filter1_d_8_1939" x="33.165" y="94.8" width="704.235" height="208.06" filterUnits="userSpaceOnUse" color-interpolation-filters="sRGB">
<feFlood flood-opacity="0" result="BackgroundImageFix"/>
<feColorMatrix in="SourceAlpha" type="matrix" values="0 0 0 0 0 0 0 0 0 0 0 0 0 0 0 0 0 0 127 0" result="hardAlpha"/>
<feOffset/>
<feGaussianBlur stdDeviation="10"/>
<feComposite in2="hardAlpha" operator="out"/>
<feColorMatrix type="matrix" values="0 0 0 0 0 0 0 0 0 0 0 0 0 0 0 0 0 0 0.25 0"/>
<feBlend mode="normal" in2="BackgroundImageFix" result="effect1_dropShadow_8_1939"/>
<feBlend mode="normal" in="SourceGraphic" in2="effect1_dropShadow_8_1939" result="shape"/>
</filter>
</defs>
</svg>
