<svg width="387" height="113" viewBox="0 0 387 113" fill="none" xmlns="http://www.w3.org/2000/svg">
<g filter="url(#filter0_d_8_1911)">
<rect x="4" y="4" width="378.613" height="105" rx="26.0331" fill="white"/>
<path d="M63.7148 48.5605C63.6807 54.2344 66.6543 59.9082 71.6787 62.0615L69.4229 65.1035C65.8682 63.4629 63.2534 60.1816 61.835 56.1484C60.4165 60.5063 57.7676 64.061 54.0078 65.8213L51.6836 62.6426C56.8447 60.4209 59.8525 54.5078 59.8525 48.5605V43.6387H63.7148V48.5605ZM77.7285 41.1436V72.0762H73.9004V41.1436H77.7285ZM93.3486 46.5098C93.3486 50.3037 95.8096 54.0635 100.663 55.6699L98.749 58.6094C95.2969 57.4644 92.8359 55.1401 91.5029 52.252C90.1187 55.4136 87.5552 57.9258 83.9492 59.1562L81.9326 56.2168C86.9229 54.5762 89.5205 50.5771 89.5205 46.5098V46.1338H82.9922V43.0918H99.7744V46.1338H93.3486V46.5098ZM106.645 41.1436V48.8682H110.951V52.0469H106.645V59.7715H102.851V41.1436H106.645ZM106.645 61.207V72.042H102.851V64.249H86.0684V61.207H106.645ZM136.723 41.1436V53.4482H141.474V56.5928H136.723V72.042H132.963V41.1436H136.723ZM130.57 45.8945V48.9365H112.353V45.8945H119.667V41.5879H123.461V45.8945H130.57ZM121.581 50.9531C126.024 50.9531 129.34 53.9609 129.34 58.2334C129.34 62.5059 126.024 65.4795 121.581 65.4795C117.069 65.4795 113.754 62.5059 113.788 58.2334C113.754 53.9609 117.069 50.9531 121.581 50.9531ZM121.581 54.0635C119.154 54.0635 117.411 55.7041 117.411 58.2334C117.411 60.7627 119.154 62.3691 121.581 62.335C123.939 62.3691 125.683 60.7627 125.717 58.2334C125.683 55.7041 123.939 54.0635 121.581 54.0635ZM152.411 49.2441C152.411 54.2344 154.154 59.4297 158.324 62.0615L156.239 64.9668C153.454 63.292 151.642 60.4038 150.634 57.0029C149.506 60.7456 147.523 63.9072 144.618 65.6846L142.26 62.8477C146.737 60.1133 148.754 54.6787 148.754 49.415V43.8779H152.411V49.2441ZM169.433 41.1436V72.042H165.775V41.1436H169.433ZM163.007 41.6904V70.5381H159.418V54.918H155.009V51.7734H159.418V41.6904H163.007ZM201.254 65.1719V68.2822H173.021V65.1719H179.55V57.3447C177.089 55.9434 175.602 53.7388 175.619 50.9873C175.585 46.0654 180.438 42.8184 187.069 42.8184C193.734 42.8184 198.588 46.0654 198.588 50.9873C198.588 53.6875 197.152 55.8579 194.76 57.2764V65.1719H201.254ZM187.069 45.8262C182.455 45.8262 179.311 47.7744 179.345 50.9873C179.311 54.166 182.455 56.1484 187.069 56.1484C191.684 56.1484 194.862 54.166 194.862 50.9873C194.862 47.7744 191.684 45.8262 187.069 45.8262ZM183.31 65.1719H190.897V58.7119C189.718 58.9854 188.437 59.1221 187.069 59.1221C185.736 59.1221 184.472 58.9854 183.31 58.7461V65.1719Z" fill="#353535"/>
<path d="M343.388 56.5L316.24 70.6647L318.299 58.3125H327.688V54.6875H318.299L316.24 42.3353L343.388 56.5Z" fill="#353535"/>
</g>
<defs>
<filter id="filter0_d_8_1911" x="0" y="0" width="386.613" height="113" filterUnits="userSpaceOnUse" color-interpolation-filters="sRGB">
<feFlood flood-opacity="0" result="BackgroundImageFix"/>
<feColorMatrix in="SourceAlpha" type="matrix" values="0 0 0 0 0 0 0 0 0 0 0 0 0 0 0 0 0 0 127 0" result="hardAlpha"/>
<feOffset/>
<feGaussianBlur stdDeviation="2"/>
<feComposite in2="hardAlpha" operator="out"/>
<feColorMatrix type="matrix" values="0 0 0 0 0 0 0 0 0 0 0 0 0 0 0 0 0 0 0.25 0"/>
<feBlend mode="normal" in2="BackgroundImageFix" result="effect1_dropShadow_8_1911"/>
<feBlend mode="normal" in="SourceGraphic" in2="effect1_dropShadow_8_1911" result="shape"/>
</filter>
</defs>
</svg>
